ffmpeg started on 2025-06-06 at 16:08:00
Report written to "D:\Convert\FFMetrics\reports\psnr_report-6.txt"
Log level: 32
Command line:
ffmpeg -hide_banner -nostdin -i "G:\\\xc0\xed\xe8\xec\xe5\\\xce\xed\xe3\xee\xe8\xed\xe3\xe8\\!_36_\xce\xf1\xe5\xed\xfc_2024\\DreamCast\\\xcf\xe5\xf0\xe5\xf0\xee\xe6\xe4\xe5\xed\xe8\xe5 \xe2 \xe0\xf0\xe8\xf1\xf2\xee\xea\xf0\xe0\xf2\xe0 \xf1\xee \xf1\xef\xee\xf1\xee\xe1\xed\xee\xf1\xf2\xfc\xfe \xe0\xed\xe0\xeb\xe8\xe7\xe0\\\xd2\xc2-2\\DC_Tensei_Kizoku_Kantei_Skill_de_Nariagaru_S2_01_Telegram_HEVC.mkv" -i "G:\\\xc0\xed\xe8\xec\xe5\\\xce\xed\xe3\xee\xe8\xed\xe3\xe8\\!_36_\xce\xf1\xe5\xed\xfc_2024\\DreamCast\\\xcf\xe5\xf0\xe5\xf0\xee\xe6\xe4\xe5\xed\xe8\xe5 \xe2 \xe0\xf0\xe8\xf1\xf2\xee\xea\xf0\xe0\xf2\xe0 \xf1\xee \xf1\xef\xee\xf1\xee\xe1\xed\xee\xf1\xf2\xfc\xfe \xe0\xed\xe0\xeb\xe8\xe7\xe0\\\xd2\xc2-2\\DC_Tensei_Kizoku_Kantei_Skill_de_Nariagaru_S2_01_Telegram.mp4" -lavfi "[0:v]settb=AVTB,setpts=PTS-STARTPTS,format=pix_fmts=yuv420p10,fps=24000/1001,scale=1920:1080:flags=bicubic[main];[1:v]settb=AVTB,setpts=PTS-STARTPTS,format=pix_fmts=yuv420p,fps=24000/1001,scale=1920:1080:flags=bicubic[ref];[main][ref]psnr=eof_action=endall:stats_file='D\\:/Convert/FFMetrics/logs/psnr_logfile-6.txt'" -f null -
Input #0, matroska,webm, from 'G:\Аниме\Онгоинги\!_36_Осень_2024\DreamCast\Перерождение в аристократа со способностью анализа\ТВ-2\DC_Tensei_Kizoku_Kantei_Skill_de_Nariagaru_S2_01_Telegram_HEVC.mkv':
  Metadata:
    COMPATIBLE_BRANDS: isomiso2avc1mp41
    MAJOR_BRAND     : isom
    MINOR_VERSION   : 512
    ENCODER         : Lavf61.7.100
  Duration: 00:23:48.18, start: -0.021000, bitrate: 984 kb/s
  Stream #0:0: Video: hevc (Main 10), yuv420p10le(tv, bt709, progressive), 1920x1080 [SAR 1:1 DAR 16:9], 23.98 fps, 23.98 tbr, 1k tbn (default)
      Metadata:
        HANDLER_NAME    : VideoHandler
        VENDOR_ID       : [0][0][0][0]
        ENCODER         : Lavc61.19.100 libx265
        BPS             : 788573
        DURATION        : 00:23:46.508708333
        NUMBER_OF_FRAMES: 34202
        NUMBER_OF_BYTES : 140613287
        _STATISTICS_WRITING_APP: mkvpropedit v66.0.0 ('Josie') 64-bit
        _STATISTICS_WRITING_DATE_UTC: 2025-06-02 09:00:57
        _STATISTICS_TAGS: BPS DURATION NUMBER_OF_FRAMES NUMBER_OF_BYTES
  Stream #0:1: Audio: aac (LC), 48000 Hz, stereo, fltp (default)
      Metadata:
        HANDLER_NAME    : SoundHandler
        VENDOR_ID       : [0][0][0][0]
        ENCODER         : Lavc61.19.100 aac
        BPS             : 193225
        DURATION        : 00:23:48.181000000
        NUMBER_OF_FRAMES: 66947
        NUMBER_OF_BYTES : 34495042
        _STATISTICS_WRITING_APP: mkvpropedit v66.0.0 ('Josie') 64-bit
        _STATISTICS_WRITING_DATE_UTC: 2025-06-02 09:00:57
        _STATISTICS_TAGS: BPS DURATION NUMBER_OF_FRAMES NUMBER_OF_BYTES
Input #1, mov,mp4,m4a,3gp,3g2,mj2, from 'G:\Аниме\Онгоинги\!_36_Осень_2024\DreamCast\Перерождение в аристократа со способностью анализа\ТВ-2\DC_Tensei_Kizoku_Kantei_Skill_de_Nariagaru_S2_01_Telegram.mp4':
  Metadata:
    major_brand     : isom
    minor_version   : 512
    compatible_brands: isomiso2avc1mp41
    encoder         : Lavf61.1.100
  Duration: 00:23:48.13, start: 0.000000, bitrate: 3599 kb/s
  Stream #1:0[0x1](und): Video: h264 (High) (avc1 / 0x31637661), yuv420p(tv, bt709, progressive), 1920x1080 [SAR 1:1 DAR 16:9], 3455 kb/s, 23.98 fps, 23.98 tbr, 24k tbn (default)
      Metadata:
        handler_name    : VideoHandler
        vendor_id       : [0][0][0][0]
        encoder         : Lavc61.3.100 h264_qsv
  Stream #1:1[0x2](und): Audio: aac (HE-AACv2) (mp4a / 0x6134706D), 48000 Hz, stereo, fltp, 144 kb/s (default)
      Metadata:
        handler_name    : SoundHandler
        vendor_id       : [0][0][0][0]
Stream mapping:
  Stream #0:0 (hevc) -> settb:default
  Stream #1:0 (h264) -> settb:default
  psnr:default -> Stream #0:0 (wrapped_avframe)
  Stream #0:1 -> #0:1 (aac (native) -> pcm_s16le (native))
Output #0, null, to 'pipe:':
  Metadata:
    COMPATIBLE_BRANDS: isomiso2avc1mp41
    MAJOR_BRAND     : isom
    MINOR_VERSION   : 512
    encoder         : Lavf61.7.100
  Stream #0:0: Video: wrapped_avframe, yuv420p10le(tv, bt709, progressive), 1920x1080 [SAR 1:1 DAR 16:9], q=2-31, 200 kb/s, 23.98 fps, 23.98 tbn
      Metadata:
        encoder         : Lavc61.19.100 wrapped_avframe
  Stream #0:1: Audio: pcm_s16le, 48000 Hz, stereo, s16, 1536 kb/s (default)
      Metadata:
        HANDLER_NAME    : SoundHandler
        VENDOR_ID       : [0][0][0][0]
        _STATISTICS_TAGS: BPS DURATION NUMBER_OF_FRAMES NUMBER_OF_BYTES
        BPS             : 193225
        DURATION        : 00:23:48.181000000
        NUMBER_OF_FRAMES: 66947
        NUMBER_OF_BYTES : 34495042
        _STATISTICS_WRITING_APP: mkvpropedit v66.0.0 ('Josie') 64-bit
        _STATISTICS_WRITING_DATE_UTC: 2025-06-02 09:00:57
        encoder         : Lavc61.19.100 pcm_s16le
frame=  155 fps=0.0 q=-0.0 size=N/A time=00:00:06.46 bitrate=N/A speed=12.7x    frame=  321 fps=311 q=-0.0 size=N/A time=00:00:13.38 bitrate=N/A speed=  13x    frame=  542 fps=350 q=-0.0 size=N/A time=00:00:22.60 bitrate=N/A speed=14.6x    frame=  743 fps=362 q=-0.0 size=N/A time=00:00:30.98 bitrate=N/A speed=15.1x    frame=  986 fps=383 q=-0.0 size=N/A time=00:00:41.12 bitrate=N/A speed=  16x    frame= 1212 fps=391 q=-0.0 size=N/A time=00:00:50.55 bitrate=N/A speed=16.3x    frame= 1427 fps=396 q=-0.0 size=N/A time=00:00:59.51 bitrate=N/A speed=16.5x    frame= 1617 fps=392 q=-0.0 size=N/A time=00:01:07.44 bitrate=N/A speed=16.4x    frame= 1830 fps=394 q=-0.0 size=N/A time=00:01:16.32 bitrate=N/A speed=16.4x    frame= 2057 fps=398 q=-0.0 size=N/A time=00:01:25.79 bitrate=N/A speed=16.6x    frame= 2259 fps=397 q=-0.0 size=N/A time=00:01:34.21 bitrate=N/A speed=16.6x    frame= 2494 fps=402 q=-0.0 size=N/A time=00:01:44.02 bitrate=N/A speed=16.8x    frame= 2694 fps=401 q=-0.0 size=N/A time=00:01:52.36 bitrate=N/A speed=16.7x    frame= 2894 fps=400 q=-0.0 size=N/A time=00:02:00.70 bitrate=N/A speed=16.7x    frame= 3086 fps=397 q=-0.0 size=N/A time=00:02:08.71 bitrate=N/A speed=16.6x    frame= 3296 fps=398 q=-0.0 size=N/A time=00:02:17.47 bitrate=N/A speed=16.6x    frame= 3452 fps=392 q=-0.0 size=N/A time=00:02:23.97 bitrate=N/A speed=16.4x    frame= 3681 fps=395 q=-0.0 size=N/A time=00:02:33.52 bitrate=N/A speed=16.5x    frame= 3912 fps=398 q=-0.0 size=N/A time=00:02:43.16 bitrate=N/A speed=16.6x    frame= 4119 fps=399 q=-0.0 size=N/A time=00:02:51.79 bitrate=N/A speed=16.6x    frame= 4382 fps=404 q=-0.0 size=N/A time=00:03:02.80 bitrate=N/A speed=16.8x    frame= 4583 fps=403 q=-0.0 size=N/A time=00:03:11.14 bitrate=N/A speed=16.8x    frame= 4796 fps=404 q=-0.0 size=N/A time=00:03:20.03 bitrate=N/A speed=16.8x    frame= 4995 fps=403 q=-0.0 size=N/A time=00:03:28.33 bitrate=N/A speed=16.8x    frame= 5190 fps=402 q=-0.0 size=N/A time=00:03:36.46 bitrate=N/A speed=16.8x    frame= 5440 fps=405 q=-0.0 size=N/A time=00:03:46.89 bitrate=N/A speed=16.9x    frame= 5675 fps=407 q=-0.0 size=N/A time=00:03:56.69 bitrate=N/A speed=  17x    frame= 5921 fps=410 q=-0.0 size=N/A time=00:04:06.95 bitrate=N/A speed=17.1x    frame= 6189 fps=413 q=-0.0 size=N/A time=00:04:18.13 bitrate=N/A speed=17.2x    frame= 6442 fps=416 q=-0.0 size=N/A time=00:04:28.68 bitrate=N/A speed=17.3x    frame= 6718 fps=420 q=-0.0 size=N/A time=00:04:40.19 bitrate=N/A speed=17.5x    frame= 6974 fps=422 q=-0.0 size=N/A time=00:04:50.87 bitrate=N/A speed=17.6x    frame= 7242 fps=425 q=-0.0 size=N/A time=00:05:02.05 bitrate=N/A speed=17.7x    frame= 7502 fps=427 q=-0.0 size=N/A time=00:05:12.89 bitrate=N/A speed=17.8x    frame= 7762 fps=430 q=-0.0 size=N/A time=00:05:23.74 bitrate=N/A speed=17.9x    frame= 8037 fps=432 q=-0.0 size=N/A time=00:05:35.20 bitrate=N/A speed=  18x    frame= 8291 fps=434 q=-0.0 size=N/A time=00:05:45.80 bitrate=N/A speed=18.1x    frame= 8520 fps=434 q=-0.0 size=N/A time=00:05:55.35 bitrate=N/A speed=18.1x    frame= 8766 fps=435 q=-0.0 size=N/A time=00:06:05.61 bitrate=N/A speed=18.2x    frame= 8992 fps=435 q=-0.0 size=N/A time=00:06:15.04 bitrate=N/A speed=18.2x    frame= 9251 fps=437 q=-0.0 size=N/A time=00:06:25.84 bitrate=N/A speed=18.2x    frame= 9486 fps=438 q=-0.0 size=N/A time=00:06:35.64 bitrate=N/A speed=18.2x    frame= 9740 fps=439 q=-0.0 size=N/A time=00:06:46.23 bitrate=N/A speed=18.3x    frame= 9987 fps=440 q=-0.0 size=N/A time=00:06:56.54 bitrate=N/A speed=18.3x    frame=10259 fps=442 q=-0.0 size=N/A time=00:07:07.88 bitrate=N/A speed=18.4x    frame=10496 fps=442 q=-0.0 size=N/A time=00:07:17.77 bitrate=N/A speed=18.4x    frame=10743 fps=443 q=-0.0 size=N/A time=00:07:28.11 bitrate=N/A speed=18.5x    frame=10989 fps=444 q=-0.0 size=N/A time=00:07:38.33 bitrate=N/A speed=18.5x    frame=11262 fps=445 q=-0.0 size=N/A time=00:07:49.71 bitrate=N/A speed=18.6x    frame=11483 fps=445 q=-0.0 size=N/A time=00:07:58.93 bitrate=N/A speed=18.6x    frame=11712 fps=445 q=-0.0 size=N/A time=00:08:08.48 bitrate=N/A speed=18.6x    frame=11956 fps=446 q=-0.0 size=N/A time=00:08:18.66 bitrate=N/A speed=18.6x    frame=12193 fps=446 q=-0.0 size=N/A time=00:08:28.54 bitrate=N/A speed=18.6x    frame=12466 fps=447 q=-0.0 size=N/A time=00:08:39.93 bitrate=N/A speed=18.7x    frame=12716 fps=448 q=-0.0 size=N/A time=00:08:50.36 bitrate=N/A speed=18.7x    frame=12962 fps=448 q=-0.0 size=N/A time=00:09:00.62 bitrate=N/A speed=18.7x    frame=13218 fps=449 q=-0.0 size=N/A time=00:09:11.30 bitrate=N/A speed=18.7x    frame=13451 fps=449 q=-0.0 size=N/A time=00:09:21.01 bitrate=N/A speed=18.7x    frame=13692 fps=450 q=-0.0 size=N/A time=00:09:31.07 bitrate=N/A speed=18.7x    frame=13942 fps=450 q=-0.0 size=N/A time=00:09:41.49 bitrate=N/A speed=18.8x    frame=14197 fps=451 q=-0.0 size=N/A time=00:09:52.13 bitrate=N/A speed=18.8x    frame=14456 fps=452 q=-0.0 size=N/A time=00:10:02.93 bitrate=N/A speed=18.8x    frame=14693 fps=452 q=-0.0 size=N/A time=00:10:12.82 bitrate=N/A speed=18.8x    frame=14953 fps=453 q=-0.0 size=N/A time=00:10:23.66 bitrate=N/A speed=18.9x    frame=15211 fps=453 q=-0.0 size=N/A time=00:10:34.42 bitrate=N/A speed=18.9x    frame=15473 fps=454 q=-0.0 size=N/A time=00:10:45.35 bitrate=N/A speed=18.9x    frame=15719 fps=454 q=-0.0 size=N/A time=00:10:55.61 bitrate=N/A speed=  19x    frame=15976 fps=455 q=-0.0 size=N/A time=00:11:06.33 bitrate=N/A speed=  19x    frame=16215 fps=455 q=-0.0 size=N/A time=00:11:16.30 bitrate=N/A speed=  19x    frame=16464 fps=456 q=-0.0 size=N/A time=00:11:26.68 bitrate=N/A speed=  19x    frame=16714 fps=456 q=-0.0 size=N/A time=00:11:37.11 bitrate=N/A speed=  19x    frame=16940 fps=456 q=-0.0 size=N/A time=00:11:46.53 bitrate=N/A speed=  19x    frame=17193 fps=456 q=-0.0 size=N/A time=00:11:57.09 bitrate=N/A speed=  19x    frame=17459 fps=457 q=-0.0 size=N/A time=00:12:08.18 bitrate=N/A speed=19.1x    frame=17719 fps=458 q=-0.0 size=N/A time=00:12:19.02 bitrate=N/A speed=19.1x    frame=17974 fps=458 q=-0.0 size=N/A time=00:12:29.66 bitrate=N/A speed=19.1x    frame=18199 fps=458 q=-0.0 size=N/A time=00:12:39.04 bitrate=N/A speed=19.1x    frame=18435 fps=458 q=-0.0 size=N/A time=00:12:48.89 bitrate=N/A speed=19.1x    frame=18673 fps=458 q=-0.0 size=N/A time=00:12:58.81 bitrate=N/A speed=19.1x    frame=18936 fps=459 q=-0.0 size=N/A time=00:13:09.78 bitrate=N/A speed=19.1x    frame=19182 fps=459 q=-0.0 size=N/A time=00:13:20.04 bitrate=N/A speed=19.1x    frame=19418 fps=459 q=-0.0 size=N/A time=00:13:29.89 bitrate=N/A speed=19.1x    frame=19612 fps=458 q=-0.0 size=N/A time=00:13:37.98 bitrate=N/A speed=19.1x    frame=19814 fps=457 q=-0.0 size=N/A time=00:13:46.40 bitrate=N/A speed=19.1x    frame=20040 fps=457 q=-0.0 size=N/A time=00:13:55.83 bitrate=N/A speed=19.1x    frame=20299 fps=457 q=-0.0 size=N/A time=00:14:06.63 bitrate=N/A speed=19.1x    frame=20542 fps=458 q=-0.0 size=N/A time=00:14:16.77 bitrate=N/A speed=19.1x    frame=20768 fps=457 q=-0.0 size=N/A time=00:14:26.19 bitrate=N/A speed=19.1x    frame=21036 fps=458 q=-0.0 size=N/A time=00:14:37.37 bitrate=N/A speed=19.1x    frame=21293 fps=458 q=-0.0 size=N/A time=00:14:48.09 bitrate=N/A speed=19.1x    frame=21518 fps=458 q=-0.0 size=N/A time=00:14:57.47 bitrate=N/A speed=19.1x    frame=21764 fps=458 q=-0.0 size=N/A time=00:15:07.74 bitrate=N/A speed=19.1x    frame=21984 fps=458 q=-0.0 size=N/A time=00:15:16.91 bitrate=N/A speed=19.1x    frame=22218 fps=458 q=-0.0 size=N/A time=00:15:26.67 bitrate=N/A speed=19.1x    frame=22444 fps=458 q=-0.0 size=N/A time=00:15:36.10 bitrate=N/A speed=19.1x    frame=22707 fps=458 q=-0.0 size=N/A time=00:15:47.07 bitrate=N/A speed=19.1x    frame=22938 fps=458 q=-0.0 size=N/A time=00:15:56.70 bitrate=N/A speed=19.1x    frame=23174 fps=458 q=-0.0 size=N/A time=00:16:06.59 bitrate=N/A speed=19.1x    frame=23440 fps=459 q=-0.0 size=N/A time=00:16:17.64 bitrate=N/A speed=19.1x    frame=23694 fps=459 q=-0.0 size=N/A time=00:16:28.23 bitrate=N/A speed=19.2x    frame=23975 fps=460 q=-0.0 size=N/A time=00:16:39.95 bitrate=N/A speed=19.2x    frame=24192 fps=460 q=-0.0 size=N/A time=00:16:49.00 bitrate=N/A speed=19.2x    frame=24444 fps=460 q=-0.0 size=N/A time=00:16:59.51 bitrate=N/A speed=19.2x    frame=24714 fps=460 q=-0.0 size=N/A time=00:17:10.77 bitrate=N/A speed=19.2x    frame=24922 fps=460 q=-0.0 size=N/A time=00:17:19.45 bitrate=N/A speed=19.2x    frame=25149 fps=460 q=-0.0 size=N/A time=00:17:28.92 bitrate=N/A speed=19.2x    frame=25382 fps=460 q=-0.0 size=N/A time=00:17:38.64 bitrate=N/A speed=19.2x    frame=25634 fps=460 q=-0.0 size=N/A time=00:17:49.15 bitrate=N/A speed=19.2x    frame=25853 fps=460 q=-0.0 size=N/A time=00:17:58.28 bitrate=N/A speed=19.2x    frame=26105 fps=460 q=-0.0 size=N/A time=00:18:08.79 bitrate=N/A speed=19.2x    frame=26339 fps=460 q=-0.0 size=N/A time=00:18:18.55 bitrate=N/A speed=19.2x    frame=26555 fps=459 q=-0.0 size=N/A time=00:18:27.56 bitrate=N/A speed=19.2x    frame=26809 fps=460 q=-0.0 size=N/A time=00:18:38.15 bitrate=N/A speed=19.2x    frame=27052 fps=460 q=-0.0 size=N/A time=00:18:48.29 bitrate=N/A speed=19.2x    frame=27301 fps=460 q=-0.0 size=N/A time=00:18:58.67 bitrate=N/A speed=19.2x    frame=27549 fps=460 q=-0.0 size=N/A time=00:19:09.02 bitrate=N/A speed=19.2x    frame=27795 fps=460 q=-0.0 size=N/A time=00:19:19.28 bitrate=N/A speed=19.2x    frame=28049 fps=461 q=-0.0 size=N/A time=00:19:29.87 bitrate=N/A speed=19.2x    frame=28285 fps=461 q=-0.0 size=N/A time=00:19:39.72 bitrate=N/A speed=19.2x    frame=28522 fps=461 q=-0.0 size=N/A time=00:19:49.60 bitrate=N/A speed=19.2x    frame=28782 fps=461 q=-0.0 size=N/A time=00:20:00.44 bitrate=N/A speed=19.2x    frame=28992 fps=461 q=-0.0 size=N/A time=00:20:09.20 bitrate=N/A speed=19.2x    frame=29213 fps=460 q=-0.0 size=N/A time=00:20:18.42 bitrate=N/A speed=19.2x    frame=29453 fps=460 q=-0.0 size=N/A time=00:20:28.43 bitrate=N/A speed=19.2x    frame=29709 fps=461 q=-0.0 size=N/A time=00:20:39.11 bitrate=N/A speed=19.2x    frame=29930 fps=460 q=-0.0 size=N/A time=00:20:48.33 bitrate=N/A speed=19.2x    frame=30184 fps=461 q=-0.0 size=N/A time=00:20:58.92 bitrate=N/A speed=19.2x    frame=30462 fps=461 q=-0.0 size=N/A time=00:21:10.51 bitrate=N/A speed=19.2x    frame=30710 fps=461 q=-0.0 size=N/A time=00:21:20.86 bitrate=N/A speed=19.2x    frame=30937 fps=461 q=-0.0 size=N/A time=00:21:30.33 bitrate=N/A speed=19.2x    frame=31192 fps=461 q=-0.0 size=N/A time=00:21:40.96 bitrate=N/A speed=19.2x    frame=31450 fps=462 q=-0.0 size=N/A time=00:21:51.72 bitrate=N/A speed=19.3x    frame=31705 fps=462 q=-0.0 size=N/A time=00:22:02.36 bitrate=N/A speed=19.3x    frame=31934 fps=462 q=-0.0 size=N/A time=00:22:11.91 bitrate=N/A speed=19.3x    frame=32219 fps=463 q=-0.0 size=N/A time=00:22:23.80 bitrate=N/A speed=19.3x    frame=32465 fps=463 q=-0.0 size=N/A time=00:22:34.06 bitrate=N/A speed=19.3x    frame=32690 fps=463 q=-0.0 size=N/A time=00:22:43.44 bitrate=N/A speed=19.3x    frame=32926 fps=462 q=-0.0 size=N/A time=00:22:53.28 bitrate=N/A speed=19.3x    frame=33124 fps=462 q=-0.0 size=N/A time=00:23:01.54 bitrate=N/A speed=19.3x    frame=33366 fps=462 q=-0.0 size=N/A time=00:23:11.64 bitrate=N/A speed=19.3x    frame=33591 fps=462 q=-0.0 size=N/A time=00:23:21.02 bitrate=N/A speed=19.3x    frame=33816 fps=462 q=-0.0 size=N/A time=00:23:30.40 bitrate=N/A speed=19.3x    frame=34048 fps=461 q=-0.0 size=N/A time=00:23:40.08 bitrate=N/A speed=19.2x    [Parsed_psnr_10 @ 000001cf55d4d700] PSNR y:47.500012 u:50.509300 v:50.386180 average:48.279150 min:41.511954 max:inf
[out#0/null @ 000001cf53705380] video:14696KiB audio:267788KiB subtitle:0KiB other streams:0KiB global headers:0KiB muxing overhead: unknown
frame=34202 fps=462 q=-0.0 Lsize=N/A time=00:23:46.50 bitrate=N/A speed=19.3x    
